<svg xmlns="http://www.w3.org/2000/svg" xmlns:xlink="http://www.w3.org/1999/xlink" width="40" zoomAndPan="magnify" viewBox="0 0 30 30.000001" height="40" preserveAspectRatio="xMidYMid meet" version="1.0"><defs><clipPath id="a98a590585"><path d="M 0.484375 0 L 29.515625 0 L 29.515625 29.03125 L 0.484375 29.03125 Z M 0.484375 0 " clip-rule="nonzero"/></clipPath><clipPath id="354b769e98"><path d="M 9.234375 18.132812 L 29.515625 18.132812 L 29.515625 29 L 9.234375 29 Z M 9.234375 18.132812 " clip-rule="nonzero"/></clipPath><clipPath id="e91e997b77"><path d="M 9.234375 18.132812 L 29.515625 18.132812 L 29.515625 29.019531 L 9.234375 29.019531 Z M 9.234375 18.132812 " clip-rule="nonzero"/></clipPath></defs><g clip-path="url(#a98a590585)"><path fill="#000000" d="M 26.265625 0 C 21.4375 0 14.964844 3.3125 10.617188 9.003906 L 7.011719 9.003906 C 4.40625 9.003906 2.914062 10.945312 1.886719 13.003906 L 0.511719 15.753906 L 7.011719 15.753906 L 13.761719 22.503906 L 13.761719 29.007812 L 16.515625 27.632812 C 18.570312 26.601562 20.515625 25.109375 20.515625 22.503906 L 20.515625 18.902344 C 26.207031 14.554688 29.515625 8.078125 29.515625 3.253906 L 29.515625 0 Z M 20.515625 6.75 C 21.757812 6.75 22.765625 7.757812 22.765625 9.003906 C 22.765625 10.246094 21.757812 11.253906 20.515625 11.253906 C 19.273438 11.253906 18.265625 10.246094 18.265625 9.003906 C 18.265625 7.757812 19.273438 6.75 20.515625 6.75 Z M 5.886719 20.253906 L 4.761719 21.378906 C 3.136719 23.003906 2.511719 27.007812 2.511719 27.007812 C 2.511719 27.007812 6.332031 26.5625 8.136719 24.757812 L 9.261719 23.632812 Z M 5.886719 20.253906 " fill-opacity="1" fill-rule="nonzero"/></g><g clip-path="url(#354b769e98)"><path fill="#ffffff" d="M 26.507812 21.6875 C 26.511719 21.628906 26.519531 21.574219 26.519531 21.515625 C 26.519531 19.6875 24.570312 18.203125 22.167969 18.203125 C 20.773438 18.203125 19.535156 18.703125 18.738281 19.480469 C 18.089844 19.1875 17.332031 19.015625 16.523438 19.015625 C 14.402344 19.015625 12.640625 20.167969 12.253906 21.695312 C 10.539062 22.140625 9.304688 23.375 9.304688 24.828125 C 9.304688 26.660156 11.253906 28.144531 13.65625 28.144531 C 14.582031 28.144531 15.4375 27.921875 16.140625 27.546875 C 16.929688 28.398438 18.226562 28.953125 19.695312 28.953125 C 21.050781 28.953125 22.261719 28.480469 23.058594 27.742188 C 23.679688 27.996094 24.386719 28.144531 25.140625 28.144531 C 27.542969 28.144531 29.488281 26.660156 29.488281 24.828125 C 29.488281 23.363281 28.238281 22.121094 26.507812 21.6875 " fill-opacity="1" fill-rule="nonzero"/></g><g clip-path="url(#e91e997b77)"><path fill="#231f20" d="M 26.507812 21.6875 L 26.574219 21.691406 C 26.578125 21.636719 26.585938 21.578125 26.585938 21.515625 C 26.585938 20.578125 26.085938 19.726562 25.285156 19.121094 C 24.484375 18.507812 23.382812 18.136719 22.167969 18.136719 C 20.757812 18.136719 19.503906 18.640625 18.691406 19.433594 L 18.738281 19.480469 L 18.769531 19.417969 C 18.109375 19.121094 17.34375 18.945312 16.523438 18.945312 C 15.449219 18.945312 14.46875 19.238281 13.703125 19.726562 C 12.9375 20.210938 12.386719 20.894531 12.1875 21.679688 L 12.253906 21.695312 L 12.234375 21.628906 C 11.367188 21.855469 10.621094 22.28125 10.085938 22.835938 C 9.554688 23.394531 9.238281 24.082031 9.238281 24.828125 C 9.238281 25.769531 9.738281 26.617188 10.539062 27.226562 C 11.339844 27.835938 12.441406 28.210938 13.65625 28.210938 C 14.589844 28.210938 15.457031 27.988281 16.171875 27.605469 L 16.140625 27.546875 L 16.089844 27.59375 C 16.894531 28.460938 18.207031 29.023438 19.695312 29.023438 C 21.066406 29.023438 22.292969 28.546875 23.105469 27.789062 L 23.058594 27.742188 L 23.035156 27.804688 C 23.660156 28.0625 24.378906 28.210938 25.140625 28.210938 C 26.355469 28.210938 27.457031 27.835938 28.257812 27.226562 C 29.058594 26.617188 29.558594 25.769531 29.558594 24.828125 C 29.558594 24.078125 29.234375 23.382812 28.695312 22.824219 C 28.15625 22.265625 27.402344 21.839844 26.523438 21.621094 L 26.507812 21.6875 L 26.574219 21.691406 L 26.507812 21.6875 L 26.488281 21.753906 C 27.34375 21.96875 28.078125 22.382812 28.597656 22.917969 C 29.117188 23.457031 29.421875 24.117188 29.421875 24.828125 C 29.421875 25.71875 28.949219 26.527344 28.175781 27.117188 C 27.398438 27.707031 26.328125 28.074219 25.140625 28.074219 C 24.394531 28.074219 23.695312 27.929688 23.085938 27.675781 L 23.046875 27.660156 L 23.011719 27.691406 C 22.230469 28.417969 21.035156 28.886719 19.695312 28.886719 C 18.242188 28.886719 16.964844 28.335938 16.191406 27.5 L 16.15625 27.460938 L 16.109375 27.488281 C 15.414062 27.855469 14.570312 28.074219 13.65625 28.074219 C 12.46875 28.074219 11.394531 27.707031 10.621094 27.117188 C 9.847656 26.527344 9.375 25.71875 9.375 24.828125 C 9.375 24.121094 9.671875 23.464844 10.1875 22.929688 C 10.699219 22.394531 11.425781 21.980469 12.269531 21.761719 L 12.308594 21.75 L 12.320312 21.710938 C 12.507812 20.96875 13.03125 20.3125 13.773438 19.839844 C 14.515625 19.367188 15.476562 19.082031 16.523438 19.082031 C 17.324219 19.082031 18.070312 19.253906 18.710938 19.542969 L 18.753906 19.5625 L 18.789062 19.53125 C 19.570312 18.769531 20.789062 18.269531 22.167969 18.269531 C 23.355469 18.269531 24.429688 18.636719 25.203125 19.226562 C 25.976562 19.816406 26.449219 20.625 26.449219 21.515625 C 26.449219 21.566406 26.441406 21.621094 26.4375 21.683594 L 26.433594 21.738281 L 26.488281 21.753906 L 26.507812 21.6875 " fill-opacity="1" fill-rule="nonzero"/></g></svg>